<?xml version="1.0" encoding="UTF-8"?>
<svg version="1.1" xmlns="http://www.w3.org/2000/svg" width="225" height="223">
<path d="M0 0 C74.25 0 148.5 0 225 0 C225 73.59 225 147.18 225 223 C150.75 223 76.5 223 0 223 C0 149.41 0 75.82 0 0 Z " fill="#F8F8F8" transform="translate(0,0)"/>
<path d="M0 0 C5.28 0 10.56 0 16 0 C16 35.31 16 70.62 16 107 C11.38 107 6.76 107 2 107 C1.505 103.535 1.505 103.535 1 100 C0.5153125 100.40992188 0.030625 100.81984375 -0.46875 101.2421875 C-8.73568731 107.88753326 -16.60008874 108.82648301 -27 108 C-35.03050681 106.80645133 -40.86830736 102.12579016 -46 96 C-53.17013487 83.2020476 -54.34793854 65.95167686 -50.8125 51.75 C-47.73558481 42.63321424 -42.39140203 36.06856743 -34.26953125 30.8984375 C-27.11390689 27.51807632 -16.57321937 27.7012057 -9.0703125 29.83203125 C-5.78220049 31.27125405 -2.98731732 33.00845512 0 35 C0 23.45 0 11.9 0 0 Z " fill="#000000" transform="translate(202,114)"/>
<path d="M0 0 C5.28 0 10.56 0 16 0 C16 35.31 16 70.62 16 107 C11.38 107 6.76 107 2 107 C1.505 103.535 1.505 103.535 1 100 C0.5153125 100.40992187 0.030625 100.81984375 -0.46875 101.2421875 C-8.73568731 107.88753326 -16.60008874 108.82648301 -27 108 C-35.03050681 106.80645133 -40.86830736 102.12579016 -46 96 C-53.17013487 83.2020476 -54.34793854 65.95167686 -50.8125 51.75 C-47.73558481 42.63321424 -42.39140203 36.06856743 -34.26953125 30.8984375 C-27.11390689 27.51807632 -16.57321937 27.7012057 -9.0703125 29.83203125 C-5.78220049 31.27125405 -2.98731732 33.00845512 0 35 C0 23.45 0 11.9 0 0 Z " fill="#000000" transform="translate(206,2)"/>
<path d="M0 0 C1.84001656 1.33035821 3.37427701 2.72615445 4.91796875 4.38671875 C5.24796875 2.07671875 5.57796875 -0.23328125 5.91796875 -2.61328125 C10.53796875 -2.61328125 15.15796875 -2.61328125 19.91796875 -2.61328125 C20.24796875 18.17671875 20.57796875 38.96671875 20.91796875 60.38671875 C25.37296875 59.89171875 25.37296875 59.89171875 29.91796875 59.38671875 C29.91796875 63.67671875 29.91796875 67.96671875 29.91796875 72.38671875 C25.24345546 75.19142672 21.29814487 76.12415602 15.91796875 75.38671875 C9.71457892 73.65790519 9.71457892 73.65790519 7.81640625 70.62890625 C6.98046875 68.69921875 6.98046875 68.69921875 5.91796875 65.38671875 C5.42296875 66.12921875 4.92796875 66.87171875 4.41796875 67.63671875 C-0.50143225 73.04805985 -6.6930013 75.06796238 -13.87890625 75.58984375 C-24.92964276 75.76525227 -31.71331092 73.79705209 -39.84375 66.05859375 C-49.33808604 54.72504079 -48.89090992 39.35219751 -48.08203125 25.38671875 C-46.62486701 15.18656905 -42.15329984 7.3377874 -34.15625 0.86328125 C-24.4281919 -6.06177706 -10.18296035 -5.8363611 0 0 Z " fill="#010101" transform="translate(49.08203125,34.61328125)"/>
<path d="M0 0 C5.24106135 5.61542288 7.75485658 11.90976454 7.73852539 19.5690918 C7.73844986 20.75008957 7.73837433 21.93108734 7.73829651 23.14787292 C7.73313522 24.42294205 7.72797394 25.69801117 7.72265625 27.01171875 C7.7212413 28.31704056 7.71982635 29.62236237 7.71836853 30.96723938 C7.7145538 34.43439656 7.70473244 37.90151174 7.69366455 41.36865234 C7.68342798 44.90787182 7.6788661 48.4470981 7.67382812 51.98632812 C7.66310923 58.9284044 7.64552087 65.87044585 7.625 72.8125 C3.005 72.8125 -1.615 72.8125 -6.375 72.8125 C-6.87 68.3575 -6.87 68.3575 -7.375 63.8125 C-7.87 64.555 -8.365 65.2975 -8.875 66.0625 C-13.86422377 71.55064615 -20.09303491 73.47016727 -27.35546875 74.05078125 C-35.50877797 74.23946928 -42.88525525 73.75152762 -49.25390625 68.1640625 C-55.38937011 61.39287588 -56.00286433 54.53117984 -55.73828125 45.70703125 C-55.25176132 40.49132839 -54.21319632 37.38959453 -50.375 33.8125 C-38.65611451 24.17598735 -23.76335247 24.34217855 -9.375 24.8125 C-9.62720469 19.02440227 -9.94012506 14.98649994 -14.375 10.8125 C-22.96374745 7.94958418 -30.31561 10.55353742 -38.37109375 13.81640625 C-41.375 14.8125 -41.375 14.8125 -44.375 13.8125 C-45.578125 11.6328125 -45.578125 11.6328125 -46.625 8.9375 C-47.15867187 7.61105469 -47.15867187 7.61105469 -47.703125 6.2578125 C-48.375 3.8125 -48.375 3.8125 -47.375 0.8125 C-44.86328125 -0.5390625 -44.86328125 -0.5390625 -41.6875 -1.8125 C-40.65238281 -2.23789063 -39.61726563 -2.66328125 -38.55078125 -3.1015625 C-27.02885224 -7.0414103 -10.19092292 -7.46661679 0 0 Z " fill="#030303" transform="translate(58.375,148.1875)"/>
<path d="M0 0 C-0.96355353 9.41002278 -0.96355353 9.41002278 -2 14 C-2.804375 13.835 -3.60875 13.67 -4.4375 13.5 C-7.2187224 13.109653 -9.88779779 12.81101627 -12.6875 12.6875 C-13.80705078 12.63142578 -13.80705078 12.63142578 -14.94921875 12.57421875 C-17.10472351 12.85034738 -17.10472351 12.85034738 -18.7265625 14.47265625 C-20.58823422 18.16744644 -20.56888944 21.66301903 -20.6875 25.75 C-20.72166016 26.54277344 -20.75582031 27.33554688 -20.79101562 28.15234375 C-20.87319104 30.10107504 -20.93828045 32.05051362 -21 34 C-20.39671875 33.65066406 -19.7934375 33.30132812 -19.171875 32.94140625 C-18.37265625 32.48636719 -17.5734375 32.03132813 -16.75 31.5625 C-15.56664062 30.88380859 -15.56664062 30.88380859 -14.359375 30.19140625 C-6.79546442 26.37188187 3.95284843 26.95402352 12.12890625 28.6484375 C17.93657899 30.72323967 21.79963238 33.73737958 25 39 C28.24945349 46.6175958 28.40077395 54.05741718 28.29296875 62.2265625 C28.28872391 63.45539154 28.28447906 64.68422058 28.28010559 65.95028687 C28.2634279 69.8420889 28.22579504 73.73335673 28.1875 77.625 C28.17243911 80.27733623 28.15875317 82.92968064 28.14648438 85.58203125 C28.11355998 92.05489065 28.06185268 98.52735501 28 105 C22.39 105 16.78 105 11 105 C10.97494385 103.35483398 10.9498877 101.70966797 10.92407227 100.01464844 C10.82997236 93.9167488 10.72975776 87.81896238 10.62768555 81.72119141 C10.58434651 79.08091885 10.5426707 76.44061845 10.50268555 73.80029297 C10.44495834 70.00740158 10.38127051 66.21465021 10.31640625 62.421875 C10.29969376 61.23946228 10.28298126 60.05704956 10.26576233 58.83880615 C10.2358445 57.1875473 10.2358445 57.1875473 10.20532227 55.50292969 C10.18200584 54.05064972 10.18200584 54.05064972 10.15821838 52.56903076 C10.01292099 50.20980131 9.79604609 48.22392328 9 46 C3.31119243 42.72241178 -3.67175336 43.41322596 -10 44 C-14.1713201 45.27118697 -15.7507581 47.5358944 -17.8125 51.375 C-19.97712288 57.98279615 -20.19279683 64.32150927 -20.31640625 71.2109375 C-20.33718735 72.17907379 -20.35796844 73.14721008 -20.37937927 74.14468384 C-20.44448984 77.22138732 -20.50357998 80.29817236 -20.5625 83.375 C-20.60572186 85.46745617 -20.6493373 87.55990426 -20.69335938 89.65234375 C-20.80013156 94.76814669 -20.90150636 99.88403125 -21 105 C-26.28 105 -31.56 105 -37 105 C-37.06960594 93.14289335 -37.12286515 81.28583557 -37.15543652 69.42856598 C-37.17107159 63.92235582 -37.19227058 58.41628578 -37.22631836 52.91015625 C-37.25898857 47.5933444 -37.27686925 42.27666708 -37.28463173 36.95976257 C-37.29016147 34.93444197 -37.30095969 32.90912847 -37.31719017 30.88386536 C-37.33906616 28.04025541 -37.34196266 25.1971966 -37.34057617 22.35351562 C-37.351362 21.52200989 -37.36214783 20.69050415 -37.3732605 19.83380127 C-37.33723963 12.97637751 -36.20884857 7.31158571 -31.3125 2.1875 C-21.85792787 -4.05608537 -10.38963572 -5.19481786 0 0 Z " fill="#020202" transform="translate(114,116)"/>
<path d="M0 0 C32.34 0 64.68 0 98 0 C98 0.33 98 0.66 98 1 C92.06 1 86.12 1 80 1 C80 31.69 80 62.38 80 94 C76.52674819 95.1577506 73.63932552 95.06866652 70 95 C68.64855346 92.29710692 68.88024835 90.19930194 68.88647461 87.17333984 C68.88658791 85.34166763 68.88658791 85.34166763 68.88670349 83.47299194 C68.89181048 82.13564005 68.89702648 80.79828857 68.90234375 79.4609375 C68.9042086 78.09616141 68.90563219 76.73138466 68.90663147 75.36660767 C68.91045137 71.77284907 68.92027717 68.17913083 68.93133545 64.58538818 C68.94156089 60.91891018 68.94613152 57.25242565 68.95117188 53.5859375 C68.9618999 46.39060447 68.97949244 39.19531303 69 32 C64.38 32 59.76 32 55 32 C55 34.97 55 37.94 55 41 C53.40494792 39.53515625 51.80989583 38.0703125 50.21484375 36.60546875 C42.44390446 30.97256567 34.1406056 31.20516473 25 32 C16.94079004 33.75381771 11.39863761 38.0226404 6.7890625 44.7734375 C3.46046617 50.70484601 2.32918065 57.39437494 1 64 C0.67 64 0.34 64 0 64 C0 42.88 0 21.76 0 0 Z " fill="#FCFCFC" transform="translate(0,0)"/>
<path d="M0 0 C5.28 0 10.56 0 16 0 C16 11.55 16 23.1 16 35 C18.97 33.35 21.94 31.7 25 30 C36.27433059 27.74513388 46.07965158 28.40674217 56.25 33.6875 C61.67722654 38.25130414 64.03974153 43.0376413 65 50 C65.08209509 51.96984465 65.11790661 53.94202448 65.11352539 55.91357422 C65.11341209 57.62466873 65.11341209 57.62466873 65.11329651 59.37033081 C65.10813522 60.58616852 65.10297394 61.80200623 65.09765625 63.0546875 C65.0962413 64.31137238 65.09482635 65.56805725 65.09336853 66.86282349 C65.08873074 70.1869194 65.0797618 73.51094542 65.06866455 76.83502197 C65.05839401 80.23375854 65.05385887 83.63250235 65.04882812 87.03125 C65.03781699 93.68752166 65.02056155 100.34375127 65 107 C59.72 107 54.44 107 49 107 C48.98541748 105.43113037 48.97083496 103.86226074 48.95581055 102.24584961 C48.89772327 96.41049713 48.82049005 90.5755263 48.73754883 84.74047852 C48.70434871 82.21775519 48.67630158 79.69495846 48.65356445 77.17211914 C48.61992904 73.54020994 48.56760633 69.90897043 48.51171875 66.27734375 C48.50532883 65.15416245 48.4989389 64.03098114 48.49235535 62.87376404 C48.37972666 56.83911858 47.96834431 52.30701199 45 47 C40.30820323 43.22571016 32.63762772 44.48272638 27 45 C22.82823166 46.26900785 21.24898048 48.53638117 19.1875 52.375 C16.99975686 59.05337381 16.80566495 65.46622265 16.68359375 72.4296875 C16.66281265 73.42001984 16.64203156 74.41035217 16.62062073 75.43069458 C16.5554968 78.57872918 16.49641371 81.72684367 16.4375 84.875 C16.39427941 87.0156331 16.35066401 89.15625826 16.30664062 91.296875 C16.19985368 96.53116915 16.09848252 101.76554328 16 107 C10.72 107 5.44 107 0 107 C0 71.69 0 36.38 0 0 Z " fill="#000000" transform="translate(81,2)"/>
<path d="M0 0 C4.3480068 2.37766821 6.34585651 6.41649936 7.79296875 10.98046875 C10.02137651 22.23636782 10.32971965 34.102169 3.85546875 43.91796875 C-0.00012178 47.77355928 -3.18173108 48.29252819 -8.58203125 48.35546875 C-13.96228254 48.25304515 -17.25897622 47.92852378 -21.20703125 43.98046875 C-27.59640109 35.03949991 -27.04648607 24.52969392 -26.20703125 13.98046875 C-24.77622846 7.0799113 -22.06776801 2.84606108 -16.20703125 -1.01953125 C-10.49373571 -2.9239631 -5.46425489 -2.25123074 0 0 Z " fill="#F9F9F9" transform="translate(197.20703125,47.01953125)"/>
<path d="M0 0 C4.3480068 2.37766821 6.34585651 6.41649936 7.79296875 10.98046875 C9.85564009 21.42834751 10.18786355 32.77600584 4.98046875 42.29296875 C1.96695172 45.99528968 -0.55015738 47.75028978 -5.328125 48.4140625 C-14.1946264 48.42450596 -14.1946264 48.42450596 -18.76953125 46.41796875 C-26.16832647 39.01917353 -26.50709961 31.16112895 -26.52392578 21.27294922 C-26.41331257 14.11859624 -25.65974457 7.82983843 -20.7109375 2.3125 C-14.435978 -3.27393526 -7.43630273 -3.06369919 0 0 Z " fill="#F9F9F9" transform="translate(44.20703125,47.01953125)"/>
<path d="M0 0 C0.34553378 5.75889634 0.36702695 10.06169381 -3 15 C-7.85377038 19.77611006 -11.09321942 21.17855631 -17.875 21.3125 C-19.10992187 21.34988281 -20.34484375 21.38726562 -21.6171875 21.42578125 C-25 21 -25 21 -27.4140625 19.2578125 C-29.99491732 15.58359062 -29.73361948 12.31677146 -29 8 C-27.15007005 4.3001401 -24.97596949 2.73345675 -21.25 1.1875 C-14.40239588 -0.86102695 -7.06655814 -0.23410683 0 0 Z " fill="#F8F8F8" transform="translate(49,186)"/>
<path d="M0 0 C11.22 0 22.44 0 34 0 C34 7.93846154 34 7.93846154 31.8125 11.25 C31.40644531 11.89453125 31.00039062 12.5390625 30.58203125 13.203125 C27.74570162 16.4246352 25.13308141 17.84258819 20.87890625 18.43359375 C12.01240485 18.44403721 12.01240485 18.44403721 7.4375 16.4375 C2.1655564 11.1655564 1.07965705 7.55759933 0 0 Z " fill="#F9F9F9" transform="translate(167,189)"/>
<path d="M0 0 C4.30987643 2.35681696 6.42366688 6.41612918 7.79296875 10.98046875 C7.79296875 12.63046875 7.79296875 14.28046875 7.79296875 15.98046875 C-3.09703125 15.98046875 -13.98703125 15.98046875 -25.20703125 15.98046875 C-25.20703125 9.32921508 -24.10052453 7.00863721 -20.20703125 1.98046875 C-14.25337025 -3.44786922 -7.0945695 -2.92290774 0 0 Z " fill="#F7F7F7" transform="translate(193.20703125,159.01953125)"/>
<path d="M0 0 C12.32765085 -1.79528896 12.32765085 -1.79528896 18 0 C22.08935088 3.40480573 24.06909081 8.40939479 26.11621094 13.20458984 C27.03640328 15.25949986 27.03640328 15.25949986 29.2265625 17.61328125 C31.43834152 20.58992659 31.33704882 22.37672522 31 26 C25.21723769 27.01505934 20.79444491 27.18759627 15.77734375 23.8671875 C12.61042057 21.13626125 9.77625592 18.12135637 7 15 C6.23816406 14.16726562 5.47632813 13.33453125 4.69140625 12.4765625 C0.97991462 8.10043756 -0.36982347 5.89196021 0 0 Z " fill="#030303" transform="translate(17,113)"/>
</svg>
